<svg width="160" height="32" viewBox="0 0 160 32" fill="none" xmlns="http://www.w3.org/2000/svg">
<path fill-rule="evenodd" clip-rule="evenodd" d="M10.638 4.28538C10.638 3.07961 9.32675 2.33115 8.2885 2.94429L3.56766 5.73218C3.23312 5.92974 2.9845 6.2452 2.87059 6.61664L0.067975 15.7557C-0.232336 16.7349 0.50005 17.7256 1.52434 17.7256C2.36564 17.7256 3.04765 18.4076 3.04765 19.2489V24.9961C3.04765 25.5402 3.33156 26.0448 3.79657 26.3273L8.27191 29.0457C9.30985 29.6761 10.638 28.9289 10.638 27.7145V4.28538Z" fill="#276FFF"/>
<path fill-rule="evenodd" clip-rule="evenodd" d="M15 4.28538C15 3.07961 16.3112 2.33115 17.3494 2.94429L22.0703 5.73218C22.4048 5.92974 22.6534 6.2452 22.7673 6.61664L25.57 15.7557C25.8703 16.7349 25.1379 17.7256 24.1136 17.7256C23.2723 17.7256 22.5903 18.4076 22.5903 19.2489V24.9961C22.5903 25.5402 22.3064 26.0448 21.8414 26.3273L17.366 29.0457C16.3281 29.6761 15 28.9289 15 27.7145V4.28538Z" fill="#276FFF"/>
<path d="M43.267 25V8.24364H45.699V15.4698H54.0772V8.24364H56.5208V25H54.0772V17.7622H45.699V25H43.267ZM63.3388 25.3491C62.4079 25.3491 61.6283 25.1784 60.9999 24.8371C60.3716 24.488 59.8945 24.0303 59.5687 23.464C59.2506 22.8899 59.0916 22.2616 59.0916 21.5789C59.0916 20.9428 59.2041 20.3842 59.429 19.9033C59.654 19.4223 59.9876 19.015 60.4298 18.6815C60.8719 18.3401 61.415 18.0647 62.0588 17.8553C62.6174 17.6924 63.2496 17.5488 63.9556 17.4247C64.6615 17.3006 65.4024 17.1842 66.1781 17.0756C66.9616 16.967 67.7374 16.8584 68.5054 16.7498L67.621 17.2385C67.6365 16.2533 67.4271 15.5241 66.9927 15.0509C66.566 14.5699 65.829 14.3295 64.7818 14.3295C64.1224 14.3295 63.5173 14.4846 62.9665 14.7949C62.4157 15.0975 62.0317 15.6017 61.8145 16.3076L59.5454 15.6095C59.8557 14.5312 60.4453 13.6739 61.3141 13.0378C62.1907 12.4017 63.3544 12.0836 64.805 12.0836C65.9299 12.0836 66.9073 12.2776 67.7374 12.6655C68.5752 13.0456 69.1881 13.6507 69.5759 14.4807C69.7776 14.8919 69.9018 15.3263 69.9483 15.784C69.9948 16.2417 70.0181 16.7343 70.0181 17.2618V25H67.8654V22.1258L68.2843 22.4982C67.7645 23.4601 67.1013 24.1777 66.2945 24.6509C65.4955 25.1164 64.5102 25.3491 63.3388 25.3491ZM63.7694 23.3593C64.4598 23.3593 65.0533 23.239 65.5498 22.9985C66.0462 22.7503 66.4458 22.4361 66.7483 22.056C67.0508 21.6759 67.2487 21.2802 67.3418 20.8691C67.4736 20.4967 67.5473 20.0778 67.5628 19.6124C67.5861 19.1469 67.5978 18.7745 67.5978 18.4953L68.389 18.7862C67.621 18.9025 66.9228 19.0073 66.2945 19.1004C65.6661 19.1935 65.0959 19.2865 64.5839 19.3796C64.0797 19.465 63.6298 19.5697 63.2341 19.6938C62.9005 19.8102 62.6019 19.9498 62.3381 20.1127C62.0821 20.2756 61.8765 20.4735 61.7214 20.7062C61.574 20.9389 61.5003 21.2221 61.5003 21.5556C61.5003 21.8815 61.5818 22.184 61.7447 22.4633C61.9076 22.7348 62.1558 22.952 62.4894 23.1149C62.823 23.2778 63.2496 23.3593 63.7694 23.3593ZM73.0281 25L73.0398 8.24364H75.5067V18.4836L80.4405 12.4327H83.5358L78.3227 18.7164L84.071 25H80.7663L75.5067 18.9491V25H73.0281ZM90.4745 25.3491C89.2178 25.3491 88.1278 25.0659 87.2047 24.4996C86.2815 23.9333 85.5678 23.1537 85.0636 22.1607C84.5671 21.16 84.3188 20.008 84.3188 18.7047C84.3188 17.3937 84.5748 16.2417 85.0868 15.2487C85.5988 14.248 86.3164 13.4722 87.2396 12.9215C88.1627 12.3629 89.241 12.0836 90.4745 12.0836C91.7312 12.0836 92.8211 12.3668 93.7443 12.9331C94.6675 13.4994 95.3811 14.279 95.8854 15.272C96.3896 16.265 96.6418 17.4092 96.6418 18.7047C96.6418 20.0158 96.3858 21.1716 95.8738 22.1724C95.3695 23.1653 94.6558 23.945 93.7327 24.5113C92.8095 25.0698 91.7235 25.3491 90.4745 25.3491ZM90.4745 23.0567C91.6769 23.0567 92.5729 22.6533 93.1625 21.8465C93.7598 21.032 94.0585 19.9847 94.0585 18.7047C94.0585 17.3937 93.7559 16.3464 93.1508 15.5629C92.5535 14.7716 91.6614 14.376 90.4745 14.376C89.6599 14.376 88.9889 14.5622 88.4614 14.9345C87.9339 15.2992 87.5421 15.8073 87.2861 16.4589C87.0301 17.1028 86.9021 17.8514 86.9021 18.7047C86.9021 20.0235 87.2047 21.0785 87.8098 21.8698C88.4148 22.6611 89.3031 23.0567 90.4745 23.0567ZM105.273 25.3491C104.071 25.3491 102.985 25.1435 102.015 24.7324C101.053 24.3135 100.258 23.72 99.6294 22.952C99.0088 22.1762 98.6054 21.257 98.4192 20.1942L100.956 19.8102C101.212 20.8342 101.747 21.6332 102.562 22.2073C103.376 22.7736 104.327 23.0567 105.413 23.0567C106.088 23.0567 106.708 22.952 107.274 22.7425C107.841 22.5253 108.295 22.2189 108.636 21.8233C108.985 21.4199 109.16 20.9389 109.16 20.3804C109.16 20.0778 109.105 19.8102 108.997 19.5775C108.896 19.3447 108.752 19.143 108.566 18.9724C108.388 18.7939 108.167 18.6427 107.903 18.5185C107.647 18.3867 107.364 18.2742 107.053 18.1811L102.76 16.9127C102.341 16.7886 101.914 16.6296 101.48 16.4356C101.045 16.2339 100.646 15.9741 100.281 15.656C99.9242 15.3302 99.6333 14.9307 99.4083 14.4575C99.1833 13.9765 99.0708 13.3947 99.0708 12.712C99.0708 11.6802 99.3346 10.8075 99.8621 10.0938C100.397 9.37236 101.119 8.82933 102.026 8.46473C102.934 8.09236 103.95 7.90618 105.075 7.90618C106.208 7.9217 107.22 8.12339 108.112 8.51127C109.012 8.89915 109.757 9.4577 110.346 10.1869C110.944 10.9084 111.355 11.785 111.58 12.8167L108.973 13.2589C108.857 12.6305 108.609 12.0914 108.229 11.6415C107.849 11.1838 107.383 10.8347 106.832 10.5942C106.282 10.3459 105.684 10.2179 105.04 10.2102C104.42 10.1947 103.85 10.2878 103.33 10.4895C102.818 10.6912 102.407 10.9743 102.096 11.3389C101.794 11.7035 101.642 12.1224 101.642 12.5956C101.642 13.0611 101.778 13.4373 102.05 13.7244C102.321 14.0114 102.655 14.2402 103.05 14.4109C103.454 14.5738 103.853 14.7096 104.249 14.8182L107.344 15.6909C107.732 15.7995 108.17 15.9469 108.659 16.1331C109.156 16.3115 109.633 16.5636 110.09 16.8895C110.556 17.2153 110.94 17.6497 111.242 18.1927C111.545 18.728 111.696 19.4029 111.696 20.2175C111.696 21.063 111.526 21.8078 111.184 22.4516C110.843 23.0878 110.374 23.623 109.776 24.0575C109.187 24.4841 108.504 24.8061 107.728 25.0233C106.953 25.2405 106.134 25.3491 105.273 25.3491ZM121.367 25C120.576 25.1552 119.8 25.2211 119.04 25.1978C118.28 25.1745 117.601 25.0272 117.004 24.7556C116.406 24.4841 115.956 24.0575 115.654 23.4756C115.382 22.9559 115.235 22.4284 115.212 21.8931C115.196 21.3501 115.188 20.7372 115.188 20.0545V8.94182H117.632V19.9382C117.632 20.4424 117.636 20.8807 117.644 21.2531C117.659 21.6255 117.741 21.9396 117.888 22.1956C118.167 22.6766 118.61 22.952 119.215 23.0218C119.828 23.0839 120.545 23.0567 121.367 22.9404V25ZM112.78 14.3876V12.4327H121.367V14.3876H112.78ZM128.906 25.3491C127.65 25.3491 126.56 25.0659 125.636 24.4996C124.713 23.9333 124 23.1537 123.495 22.1607C122.999 21.16 122.751 20.008 122.751 18.7047C122.751 17.3937 123.007 16.2417 123.519 15.2487C124.031 14.248 124.748 13.4722 125.671 12.9215C126.595 12.3629 127.673 12.0836 128.906 12.0836C130.163 12.0836 131.253 12.3668 132.176 12.9331C133.099 13.4994 133.813 14.279 134.317 15.272C134.821 16.265 135.074 17.4092 135.074 18.7047C135.074 20.0158 134.818 21.1716 134.306 22.1724C133.801 23.1653 133.088 23.945 132.164 24.5113C131.241 25.0698 130.155 25.3491 128.906 25.3491ZM128.906 23.0567C130.109 23.0567 131.005 22.6533 131.594 21.8465C132.192 21.032 132.49 19.9847 132.49 18.7047C132.49 17.3937 132.188 16.3464 131.583 15.5629C130.985 14.7716 130.093 14.376 128.906 14.376C128.092 14.376 127.421 14.5622 126.893 14.9345C126.366 15.2992 125.974 15.8073 125.718 16.4589C125.462 17.1028 125.334 17.8514 125.334 18.7047C125.334 20.0235 125.636 21.0785 126.242 21.8698C126.847 22.6611 127.735 23.0567 128.906 23.0567ZM137.631 25V12.4327H139.795V15.4815L139.492 15.0858C139.648 14.6824 139.849 14.3139 140.098 13.9804C140.346 13.639 140.633 13.3598 140.959 13.1425C141.277 12.9098 141.63 12.7314 142.018 12.6073C142.413 12.4754 142.817 12.3978 143.228 12.3745C143.639 12.3435 144.035 12.3629 144.415 12.4327V14.7135C144.004 14.6048 143.546 14.5738 143.042 14.6204C142.545 14.6669 142.087 14.8259 141.668 15.0975C141.273 15.3535 140.959 15.6638 140.726 16.0284C140.501 16.393 140.338 16.8002 140.237 17.2502C140.136 17.6924 140.086 18.1617 140.086 18.6582V25H137.631ZM151.977 25.3491C150.728 25.3491 149.631 25.0776 148.684 24.5345C147.745 23.9838 147.012 23.2196 146.485 22.2422C145.965 21.257 145.705 20.1166 145.705 18.8211C145.705 17.448 145.961 16.2572 146.473 15.2487C146.993 14.2402 147.714 13.4606 148.638 12.9098C149.561 12.359 150.635 12.0836 151.861 12.0836C153.141 12.0836 154.231 12.3823 155.131 12.9796C156.031 13.5692 156.702 14.4109 157.144 15.5047C157.594 16.5985 157.772 17.8979 157.679 19.4029H155.247V18.5185C155.232 17.0601 154.952 15.9818 154.409 15.2836C153.874 14.5855 153.056 14.2364 151.954 14.2364C150.736 14.2364 149.821 14.6204 149.208 15.3884C148.595 16.1564 148.288 17.2657 148.288 18.7164C148.288 20.0972 148.595 21.1678 149.208 21.928C149.821 22.6805 150.705 23.0567 151.861 23.0567C152.621 23.0567 153.277 22.8861 153.827 22.5447C154.386 22.1956 154.82 21.6992 155.131 21.0553L157.516 21.8116C157.027 22.9365 156.287 23.8092 155.294 24.4298C154.301 25.0427 153.195 25.3491 151.977 25.3491ZM147.497 19.4029V17.5062H156.469V19.4029H147.497Z" fill="#1B1B1B"/>
</svg>
