<svg width="26" height="28" viewBox="0 0 26 28" fill="none" xmlns="http://www.w3.org/2000/svg">
<path fill-rule="evenodd" clip-rule="evenodd" d="M10.638 2.28538C10.638 1.07961 9.32675 0.331154 8.2885 0.94429L3.56766 3.73218C3.23312 3.92974 2.9845 4.2452 2.87059 4.61664L0.067975 13.7557C-0.232336 14.7349 0.50005 15.7256 1.52434 15.7256C2.36564 15.7256 3.04765 16.4076 3.04765 17.2489V22.9961C3.04765 23.5402 3.33156 24.0448 3.79657 24.3273L8.27191 27.0457C9.30985 27.6761 10.638 26.9289 10.638 25.7145V2.28538Z" fill="#276FFF"/>
<path fill-rule="evenodd" clip-rule="evenodd" d="M15 2.28538C15 1.07961 16.3112 0.331154 17.3494 0.94429L22.0703 3.73218C22.4048 3.92974 22.6534 4.2452 22.7673 4.61664L25.57 13.7557C25.8703 14.7349 25.1379 15.7256 24.1136 15.7256C23.2723 15.7256 22.5903 16.4076 22.5903 17.2489V22.9961C22.5903 23.5402 22.3064 24.0448 21.8414 24.3273L17.366 27.0457C16.3281 27.6761 15 26.9289 15 25.7145V2.28538Z" fill="#276FFF"/>
</svg>
